<svg style="position: absolute; width: 32; height: 32;" width="32" height="32" version="1.1" xmlns="http://www.w3.org/2000/svg" xmlns:xlink="http://www.w3.org/1999/xlink">
    <path class="path1" d="M4.6000031,22.300018C4.6000031,22.300018 7.6000012,27.5 12.900016,28 13.30001,28.100006 13.699973,28.100006 14.099997,28.100006 14.500021,28.100006 14.899984,28.100006 15.199972,28 20.599994,27.600006 23.699967,22.300018 23.699967,22.300018 27.099988,22.900024 27.599988,25.300018 27.599988,25.300018L28.3,32 15.800008,32 12.499992,32 0,32 0.70001176,25.300018C0.70001188,25.300018,1.2000116,22.800018,4.6000031,22.300018z M14.000022,0C18.699969,0,22.500016,3.7000122,22.599992,8.3000183L22.599992,8.4000244 22.599992,18C22.599992,19,21.800004,19.900024,20.699969,19.900024L16.699971,19.900024C21.500016,17 21.300004,10.600006 21.300004,10.600006 16.199971,10.5 14.099997,6.4000244 14.099997,6.4000244 11.599998,10.300018 6.9999956,10.700012 6.9999956,10.700012 6.7000078,16.600006 10.200005,19.100006 11.599998,19.900024L7.3000139,19.900024C6.3000143,19.900024,5.4000209,19.100006,5.4000209,18L5.4000209,9.6000061C5.4000209,9.3000183 5.3000148,8.9000244 5.3000148,8.6000061 5.3000148,3.9000244 9.2000063,0 14.000022,0z" />
</svg>
