<svg style="position: absolute; width: 0; height: 0;" width="32" height="32" version="1.1" xmlns="http://www.w3.org/2000/svg" xmlns:xlink="http://www.w3.org/1999/xlink">

                <path class="path1" d="M16.700012,11.199997C17.100037,11.199997 17.5,11.300003 17.800049,11.5 18.100037,11.699997 18.200012,12.099998 18.200012,12.5 18.200012,12.699997 18.200012,13 17.200012,16.400002 15.900024,20.599998 15.600037,22.199997 15.600037,22.699997 15.700012,22.599998 16.300049,22.199997 17.600037,21L18,20.699997 19.300049,22 18.900024,22.400002C17.5,23.699997 16.400024,24.599998 15.800049,25 15.100037,25.400002 14.5,25.599998 14,25.599998 13.5,25.599998 13.100037,25.400002 12.800049,25.099998 12.5,24.800003 12.300049,24.300003 12.300049,23.800003 12.300049,22.5 13.100037,19.400002 14.600037,14.300003 14.400024,14.300003 14,14.599998 12.900024,15.699997L12.5,16 11,14.900002 11.400024,14.5C12.400024,13.300003 13.400024,12.5 14.300049,12 15.200012,11.5 16,11.199997 16.700012,11.199997z M16.700012,5.5C17.900024,5.5 18.800049,6.4000015 18.800049,7.5999985 18.800049,8.8000031 17.900024,9.6999969 16.700012,9.6999969 15.5,9.6999969 14.600037,8.8000031 14.600037,7.5999985 14.600037,6.5 15.5,5.5 16.700012,5.5z M16,3.0999985C8.9000244,3.0999985 3.1000366,8.9000015 3.1000366,16 3.1000366,23.099998 8.9000244,28.900002 16,28.900002 23.100037,28.900002 28.900024,23.099998 28.900024,16 28.900024,8.9000015 23.100037,3.0999985 16,3.0999985z M16,0C24.800049,0 32,7.1999969 32,16 32,24.800003 24.800049,32 16,32 7.2000122,32 0,24.800003 0,16 0,7.1999969 7.2000122,0 16,0z" />

</svg>
